<svg width="450" height="150" viewBox="0 0 450 150" fill="none" xmlns="http://www.w3.org/2000/svg">
<rect width="450" height="150" fill="white"/>
<path d="M80.84 37.68L97.448 37.2L96.488 106.8L92.936 113.616L50.408 113.904L44.072 110.256L42.92 36.912H59.432L63.08 40.272L64.232 95.664L76.808 96.528L77.384 41.328L80.84 37.68ZM160.643 42.96L160.739 89.04L156.707 93.744L126.947 94.608L126.659 112.368L106.595 114V37.2L156.803 39.216L160.643 42.96ZM140.579 55.248L127.907 54L127.427 77.424L140.483 76.464L140.579 55.248ZM217.225 39.312L224.713 49.008L223.753 104.112L216.361 112.944L169.801 114L170.377 37.2L217.225 39.312ZM190.633 97.584L204.265 95.088L204.841 56.784L190.825 53.712L190.633 97.584ZM268.818 114.096L268.338 90.48L253.362 90.864L252.21 113.616L232.914 114L235.89 43.536L239.634 39.024L281.49 37.2L287.346 45.84L288.786 113.712L268.818 114.096ZM254.13 74.64L268.05 75.6L267.666 56.496L254.994 57.552L254.13 74.64ZM296.964 37.008H350.916L350.052 55.728L334.788 56.4L332.676 111.984L312.9 113.904L313.38 56.304L297.06 55.536L296.964 37.008ZM405.391 96.72L405.679 113.904H359.983V37.104L404.815 38.544L404.623 56.112L379.279 55.824V66.48L395.503 67.152V82.992L379.471 82.32L379.375 95.28L405.391 96.72Z" fill="black"/>
</svg>
